<svg width="345" height="180" viewBox="0 0 345 180" fill="none" xmlns="http://www.w3.org/2000/svg">
<g opacity="0.25">
<path d="M-106.377 54.6921C-222.633 -97.2968 -54.8076 -185.298 92.2295 -184.595C176.577 -187.757 191.579 -289.88 296.093 -293.736C400.608 -297.591 333.194 -149.607 494.266 -152.653C655.338 -155.699 683.476 110.26 562.611 162.25C441.746 214.24 491.454 240.818 406.523 381.817C321.592 522.815 64.6426 478.305 61.3952 323.065C58.1478 167.825 19.4716 219.223 -106.377 54.6921Z" stroke="url(#paint0_linear_61_2489)"/>
<path d="M209.881 81.8252C197.858 67.7329 212.757 31.1527 237.797 34.0878C260.727 36.7756 277.058 22.1265 291.544 21.6037C329.679 20.2273 320.017 31.5485 340.669 39.8613C365.799 49.9769 392.852 92.1101 351.248 108.906C317.03 122.721 333.978 135.206 311.329 152.914C288.679 170.622 254.561 169.819 241.238 136.818C236.235 124.425 229.906 105.296 209.881 81.8252Z" stroke="url(#paint1_linear_61_2489)"/>
<path d="M-77.9652 56.3293C-184.745 -83.1235 -30.8225 -166.45 105.124 -165.544C183.888 -168.175 199.01 -262.345 295.341 -265.898C393.821 -269.528 331.657 -133.968 479.964 -135.981C628.678 -137.83 656.717 107.781 543.057 156.571C430.069 205.091 476.799 230.388 397.53 360.178C318.261 489.968 81.569 449.431 77.4056 305.304C73.9986 163.05 38.2631 208.036 -77.9652 56.3293Z" stroke="url(#paint2_linear_61_2489)"/>
<path d="M-49.5526 57.9665C-146.857 -68.9502 -6.83655 -147.603 118.019 -146.494C191.2 -148.592 206.443 -234.811 294.589 -238.06C387.035 -241.465 330.121 -118.328 465.662 -119.309C602.018 -119.962 629.958 105.301 523.504 150.892C418.393 195.941 462.145 219.957 388.538 338.539C314.93 457.121 98.4962 420.558 93.4168 287.543C89.8502 158.275 57.0553 196.85 -49.5526 57.9665Z" stroke="url(#paint3_linear_61_2489)"/>
<path d="M-21.1401 59.6047C-108.969 -54.776 17.1493 -128.754 130.914 -127.442C198.512 -129.008 213.876 -207.275 293.837 -210.221C380.248 -213.401 328.585 -102.688 451.361 -102.636C575.358 -102.093 603.2 102.823 503.951 145.215C406.717 186.793 447.491 209.528 379.545 316.901C311.6 424.275 115.423 391.685 109.428 269.783C105.702 153.502 75.8475 185.664 -21.1401 59.6047Z" stroke="url(#paint4_linear_61_2489)"/>
<path d="M7.27268 61.2433C-71.0803 -40.6014 41.1354 -109.904 143.81 -108.39C205.824 -109.424 221.309 -179.739 293.086 -182.382C373.462 -185.336 327.049 -87.0476 437.06 -85.9631C548.698 -84.2231 576.441 100.345 484.398 139.537C395.042 177.645 432.837 199.099 370.553 295.264C308.27 391.429 132.351 362.813 125.439 252.023C121.553 148.728 94.64 174.479 7.27268 61.2433Z" stroke="url(#paint5_linear_61_2489)"/>
<path d="M35.917 63.4532C-32.9602 -25.8554 65.353 -90.4836 156.937 -88.7659C213.367 -89.2689 228.973 -151.631 292.566 -153.972C366.908 -156.7 325.745 -70.8356 422.99 -68.7185C522.27 -65.782 549.915 98.438 465.077 134.431C383.597 169.068 418.414 189.241 361.793 274.198C305.172 359.155 149.51 334.512 141.682 234.835C137.637 144.526 113.664 163.866 35.917 63.4532Z" stroke="url(#paint6_linear_61_2489)"/>
<path d="M64.8346 66.338C5.43301 -10.4346 89.8439 -70.3881 170.337 -68.4675C221.184 -68.4387 236.911 -122.849 292.319 -124.886C360.626 -127.389 324.714 -53.9488 409.193 -50.7991C496.115 -46.666 523.661 97.2062 446.029 130C372.426 161.167 404.265 180.058 353.306 253.807C302.347 327.556 166.942 306.886 158.199 218.322C153.993 140.998 132.961 153.927 64.8346 66.338Z" stroke="url(#paint7_linear_61_2489)"/>
<path d="M93.7668 69.2607C43.8409 5.02416 114.349 -50.2547 183.752 -48.1312C229.016 -47.5706 244.863 -94.0285 292.087 -95.7631C354.36 -98.0409 323.698 -37.0241 395.411 -32.8418C469.975 -27.5122 497.422 96.0122 426.996 125.606C361.27 153.303 390.131 170.913 344.833 233.454C299.536 295.994 184.389 279.298 174.729 201.846C170.365 137.509 152.273 144.026 93.7668 69.2607Z" stroke="url(#paint8_linear_61_2489)"/>
<path d="M122.723 72.2366C82.2724 20.5361 138.879 -30.0681 197.191 -27.7417C236.871 -26.6494 252.839 -65.155 291.878 -66.5867C348.117 -68.6391 322.705 -20.0462 381.653 -14.8313C443.858 -8.30523 471.207 94.8714 407.986 121.266C350.137 145.492 376.02 161.821 336.384 213.153C296.749 264.486 201.859 251.763 191.284 185.424C186.759 134.073 171.609 134.178 122.723 72.2366Z" stroke="url(#paint9_linear_61_2489)"/>
<path d="M151.712 75.2919C120.737 36.1274 163.441 -9.80209 210.663 -7.27278C244.759 -5.64862 260.849 -36.2021 291.703 -37.3308C341.907 -39.1579 321.745 -2.98889 367.928 3.25867C417.775 10.9812 445.025 93.81 389.01 117.005C339.038 137.76 361.942 152.808 327.969 192.933C293.996 233.057 219.363 224.307 207.872 169.081C203.188 130.716 190.978 124.41 151.712 75.2919Z" stroke="url(#paint10_linear_61_2489)"/>
<path d="M180.754 78.4663C159.255 51.8379 188.057 10.583 224.187 13.3152C252.701 15.4712 268.911 -7.13008 291.581 -7.95585C335.75 -9.55757 320.839 14.1875 354.256 21.4677C391.745 30.3867 418.896 92.8678 370.086 112.863C327.992 130.148 347.918 143.915 319.606 172.831C291.295 201.747 236.919 196.971 224.512 152.857C219.669 127.478 210.399 114.761 180.754 78.4663Z" stroke="url(#paint11_linear_61_2489)"/>
</g>
<defs>
<linearGradient id="paint0_linear_61_2489" x1="154.987" y1="-245.953" x2="420.725" y2="412.276" gradientUnits="userSpaceOnUse">
<stop stop-color="white"/>
<stop offset="0.265" stop-color="#E4E4E4"/>
<stop offset="0.485" stop-color="#CECECE"/>
<stop offset="0.75" stop-color="#B3B3B3"/>
<stop offset="1" stop-color="#999999"/>
</linearGradient>
<linearGradient id="paint1_linear_61_2489" x1="266.778" y1="19.2441" x2="320.247" y2="151.686" gradientUnits="userSpaceOnUse">
<stop stop-color="white"/>
<stop offset="0.265" stop-color="#E4E4E4"/>
<stop offset="0.485" stop-color="#CECECE"/>
<stop offset="0.75" stop-color="#B3B3B3"/>
<stop offset="1" stop-color="#999999"/>
</linearGradient>
<linearGradient id="paint2_linear_61_2489" x1="165.124" y1="-221.834" x2="411.223" y2="387.751" gradientUnits="userSpaceOnUse">
<stop stop-color="white"/>
<stop offset="0.265" stop-color="#E4E4E4"/>
<stop offset="0.485" stop-color="#CECECE"/>
<stop offset="0.75" stop-color="#B3B3B3"/>
<stop offset="1" stop-color="#999999"/>
</linearGradient>
<linearGradient id="paint3_linear_61_2489" x1="175.263" y1="-197.715" x2="401.724" y2="363.226" gradientUnits="userSpaceOnUse">
<stop stop-color="white"/>
<stop offset="0.265" stop-color="#E4E4E4"/>
<stop offset="0.485" stop-color="#CECECE"/>
<stop offset="0.75" stop-color="#B3B3B3"/>
<stop offset="1" stop-color="#999999"/>
</linearGradient>
<linearGradient id="paint4_linear_61_2489" x1="185.403" y1="-173.597" x2="392.226" y2="338.702" gradientUnits="userSpaceOnUse">
<stop stop-color="white"/>
<stop offset="0.265" stop-color="#E4E4E4"/>
<stop offset="0.485" stop-color="#CECECE"/>
<stop offset="0.75" stop-color="#B3B3B3"/>
<stop offset="1" stop-color="#999999"/>
</linearGradient>
<linearGradient id="paint5_linear_61_2489" x1="195.544" y1="-149.48" x2="382.73" y2="314.179" gradientUnits="userSpaceOnUse">
<stop stop-color="white"/>
<stop offset="0.265" stop-color="#E4E4E4"/>
<stop offset="0.485" stop-color="#CECECE"/>
<stop offset="0.75" stop-color="#B3B3B3"/>
<stop offset="1" stop-color="#999999"/>
</linearGradient>
<linearGradient id="paint6_linear_61_2489" x1="205.688" y1="-125.363" x2="373.469" y2="290.227" gradientUnits="userSpaceOnUse">
<stop stop-color="white"/>
<stop offset="0.265" stop-color="#E4E4E4"/>
<stop offset="0.485" stop-color="#CECECE"/>
<stop offset="0.75" stop-color="#B3B3B3"/>
<stop offset="1" stop-color="#999999"/>
</linearGradient>
<linearGradient id="paint7_linear_61_2489" x1="215.837" y1="-101.248" x2="364.484" y2="266.95" gradientUnits="userSpaceOnUse">
<stop stop-color="white"/>
<stop offset="0.265" stop-color="#E4E4E4"/>
<stop offset="0.485" stop-color="#CECECE"/>
<stop offset="0.75" stop-color="#B3B3B3"/>
<stop offset="1" stop-color="#999999"/>
</linearGradient>
<linearGradient id="paint8_linear_61_2489" x1="225.989" y1="-77.1354" x2="355.52" y2="243.712" gradientUnits="userSpaceOnUse">
<stop stop-color="white"/>
<stop offset="0.265" stop-color="#E4E4E4"/>
<stop offset="0.485" stop-color="#CECECE"/>
<stop offset="0.75" stop-color="#B3B3B3"/>
<stop offset="1" stop-color="#999999"/>
</linearGradient>
<linearGradient id="paint9_linear_61_2489" x1="236.15" y1="-53.0261" x2="346.588" y2="220.527" gradientUnits="userSpaceOnUse">
<stop stop-color="white"/>
<stop offset="0.265" stop-color="#E4E4E4"/>
<stop offset="0.485" stop-color="#CECECE"/>
<stop offset="0.75" stop-color="#B3B3B3"/>
<stop offset="1" stop-color="#999999"/>
</linearGradient>
<linearGradient id="paint10_linear_61_2489" x1="246.324" y1="-28.9218" x2="337.704" y2="197.425" gradientUnits="userSpaceOnUse">
<stop stop-color="white"/>
<stop offset="0.265" stop-color="#E4E4E4"/>
<stop offset="0.485" stop-color="#CECECE"/>
<stop offset="0.75" stop-color="#B3B3B3"/>
<stop offset="1" stop-color="#999999"/>
</linearGradient>
<linearGradient id="paint11_linear_61_2489" x1="256.524" y1="-4.82826" x2="328.901" y2="174.448" gradientUnits="userSpaceOnUse">
<stop stop-color="white"/>
<stop offset="0.265" stop-color="#E4E4E4"/>
<stop offset="0.485" stop-color="#CECECE"/>
<stop offset="0.75" stop-color="#B3B3B3"/>
<stop offset="1" stop-color="#999999"/>
</linearGradient>
</defs>
</svg>
